# xmcd
#
# Track frame offsets:
# 150
# 13278
# 25541
# 45547
# 63205
# 84346
# 99093
# 116153
# 131479
# 150800
# 166175
#
# Disc length: 2546 seconds
#
#
# Revision: 0
# Processed by: cddbd v1.5.1PL0 Copyright (c) Steve Scherf et al.
# Submitted via: FreeRIP 2.30 
#
DISCID=7109f00b
DTITLE=Mercy's Mark Quartet - Mercy's Mark
DYEAR=2004
DGENRE=Gospel
TTITLE0=Great Is Thy Faithfulness
TTITLE1=Another One Like Him
TTITLE2=Who Is This King
TTITLE3=I'm On The Battlefield
TTITLE4=His Response
TTITLE5=This Jordan
TTITLE6=I've Crossed This Valley Before
TTITLE7=I Got It
TTITLE8=Soldier On
TTITLE9=We Shall See Heaven
TTITLE10=In Awe
EXTD=
EXTT0=
EXTT1=
EXTT2=
EXTT3=
EXTT4=
EXTT5=
EXTT6=
EXTT7=
EXTT8=
EXTT9=
EXTT10=
PLAYORDER=
